<?xml version="1.0" encoding="UTF-8"?>
<svg xmlns="http://www.w3.org/2000/svg" xmlns:xlink="http://www.w3.org/1999/xlink" width="170px" height="170px" viewBox="0 0 170 170" version="1.1">
<g id="surface1">
<path style=" stroke:none;fill-rule:nonzero;fill:rgb(99.607843%,100%,100%);fill-opacity:1;" d="M 84.621094 170.753906 C 56.414062 170.753906 28.585938 170.753906 0.753906 170.753906 C 0.753906 114.089844 0.753906 57.421875 0.753906 0.753906 C 57.421875 0.753906 114.089844 0.753906 170.753906 0.753906 C 170.753906 57.421875 170.753906 114.089844 170.753906 170.753906 C 142.171875 170.753906 113.585938 170.753906 84.621094 170.753906 M 130.835938 86.457031 C 133.722656 79.171875 132.941406 72.359375 127.730469 66.429688 C 123.1875 61.257812 117.347656 59.367188 110.460938 60.546875 C 110.460938 62.753906 110.460938 64.734375 110.460938 66.859375 C 111.316406 66.765625 112.027344 66.640625 112.738281 66.613281 C 118.003906 66.421875 122.027344 68.609375 124.539062 73.203125 C 126.933594 77.582031 126.503906 82.011719 123.59375 85.976562 C 120.488281 90.210938 116.167969 91.695312 110.964844 90.695312 C 108.347656 90.195312 107.054688 88.957031 107.199219 86.097656 C 107.394531 82.316406 107.25 78.519531 107.25 73.71875 C 104.886719 77.113281 102.703125 79.378906 101.570312 82.082031 C 99.710938 86.515625 99.496094 93.171875 105.609375 95.835938 C 115.058594 99.953125 125.097656 96.636719 130.835938 86.457031 M 48.90625 66.691406 C 42.867188 74.570312 42.925781 84.261719 49.050781 91.183594 C 54.972656 97.878906 64.617188 99.476562 72.375 95.152344 C 75.0625 93.65625 76 91.558594 76.363281 88.484375 C 77.074219 82.425781 73.082031 78.933594 69.652344 73.953125 C 69.652344 78.710938 69.566406 82.546875 69.683594 86.378906 C 69.753906 88.632812 68.820312 89.867188 66.726562 90.527344 C 58.15625 93.234375 49.492188 85.613281 51.144531 76.785156 C 52.429688 69.898438 57.511719 66.472656 66.367188 66.601562 C 66.367188 64.621094 66.367188 62.644531 66.367188 60.554688 C 59.53125 59.371094 53.914062 61.378906 48.90625 66.691406 M 74.808594 64.582031 C 73.257812 63.507812 71.703125 62.433594 70.027344 61.277344 C 68.894531 66.0625 70.257812 69.425781 72.796875 72.714844 C 76.246094 77.179688 79.269531 81.972656 82.503906 86.605469 C 84.40625 89.332031 86.363281 92.023438 88.492188 95.003906 C 94.179688 86.839844 99.421875 79.027344 105 71.460938 C 107.289062 68.351562 107.5625 65.246094 106.953125 61.15625 C 97.8125 66.390625 94.953125 76.410156 88.28125 83.207031 C 83.820312 76.976562 79.515625 70.964844 74.808594 64.582031 M 72.398438 48.699219 C 68.359375 56.441406 68.566406 57.148438 75.792969 60.148438 C 75.894531 60.191406 76.039062 60.140625 76.164062 60.128906 C 76.738281 51.335938 81.082031 45.972656 88.15625 46.253906 C 90.949219 46.367188 93.980469 47.683594 96.359375 49.269531 C 100.070312 51.746094 100.792969 55.933594 100.59375 60.390625 C 102.914062 59.367188 104.949219 58.46875 106.949219 57.585938 C 106.617188 49.308594 101.78125 42.910156 94.058594 40.445312 C 86.046875 37.890625 78.199219 40.734375 72.398438 48.699219 M 72.960938 107.90625 C 71.039062 110.648438 69.121094 113.390625 67.332031 115.949219 C 63.710938 113.796875 64.242188 107.355469 58.027344 107.851562 C 58.027344 113.457031 58.085938 118.730469 58.003906 123.996094 C 57.960938 126.464844 59.125 126.589844 61.324219 125.957031 C 61.324219 121.933594 61.324219 118.015625 61.324219 113.375 C 63.492188 116.542969 65.203125 119.039062 67.089844 121.789062 C 69.09375 118.871094 70.824219 116.351562 73.175781 112.929688 C 73.175781 117.324219 73.257812 120.546875 73.152344 123.765625 C 73.066406 126.285156 73.988281 126.890625 76.339844 125.792969 C 76.339844 120.445312 76.242188 115.164062 76.386719 109.890625 C 76.449219 107.496094 75.144531 107.5625 72.960938 107.90625 M 130.226562 114.289062 C 130.15625 113.230469 130.082031 112.171875 130.007812 111.113281 C 131.667969 111.050781 133.496094 110.519531 134.945312 111.039062 C 136.863281 111.726562 138.199219 112.265625 139.128906 108.738281 C 136.1875 108.347656 133.335938 107.582031 130.523438 107.714844 C 127.996094 107.832031 126.199219 109.578125 125.980469 112.402344 C 125.75 115.402344 127.320312 117.078125 130.035156 117.90625 C 131.589844 118.378906 133.226562 118.691406 134.65625 119.40625 C 135.378906 119.765625 136.203125 120.925781 136.121094 121.621094 C 136.027344 122.351562 134.898438 123.523438 134.246094 123.507812 C 132.449219 123.460938 130.675781 122.789062 128.871094 122.570312 C 127.78125 122.441406 126.640625 122.703125 125.527344 122.789062 C 125.542969 123.195312 125.5625 123.601562 125.582031 124.007812 C 128.695312 126.472656 132.300781 127.691406 136.015625 126.035156 C 137.632812 125.316406 139.433594 123.03125 139.503906 121.382812 C 139.574219 119.773438 137.863281 117.65625 136.359375 116.53125 C 134.847656 115.402344 132.625 115.222656 130.226562 114.289062 M 51.339844 108.152344 C 45.4375 106.355469 40.652344 107.957031 38.371094 112.492188 C 36.21875 116.773438 37.289062 121.894531 40.933594 124.753906 C 44.941406 127.902344 49.964844 127.445312 54.203125 123.539062 C 53.230469 121.191406 52.003906 121.707031 50.167969 122.800781 C 47.234375 124.546875 43.90625 123.761719 42.128906 121.167969 C 40.230469 118.394531 40.160156 115.449219 42.261719 112.769531 C 44.449219 109.984375 47.289062 109.707031 50.351562 111.324219 C 50.996094 111.664062 51.589844 112.09375 52.179688 112.46875 C 54.199219 110.1875 54.199219 110.1875 51.339844 108.152344 M 91.433594 126.707031 C 93.460938 125.84375 95.488281 124.984375 97.550781 124.109375 C 96.355469 121.386719 95.242188 121.511719 93.324219 122.757812 C 90.933594 124.316406 88.222656 124.167969 86.03125 122.070312 C 83.695312 119.835938 83.203125 117.074219 84.5 114.132812 C 86.335938 109.964844 89.921875 109.40625 95.460938 112.449219 C 96.011719 111.730469 96.585938 110.984375 97.148438 110.246094 C 93.109375 106.828125 88.816406 106.355469 84.886719 108.761719 C 81.257812 110.984375 79.632812 115.179688 80.699219 119.570312 C 81.808594 124.121094 85.125 126.484375 91.433594 126.707031 M 112.335938 110.800781 C 112.761719 111.824219 113.5 112.835938 113.550781 113.878906 C 113.710938 117.132812 113.722656 120.402344 113.578125 123.65625 C 113.453125 126.445312 114.621094 126.902344 117.207031 125.9375 C 117.207031 120.949219 117.207031 115.972656 117.207031 110.945312 C 119.21875 110.800781 120.945312 110.675781 122.671875 110.550781 C 122.886719 110.226562 123.097656 109.902344 123.3125 109.582031 C 122.472656 108.929688 121.667969 107.765625 120.792969 107.714844 C 117.171875 107.5 113.527344 107.671875 109.890625 107.605469 C 107.308594 107.558594 107.34375 108.78125 108.175781 110.753906 C 109.40625 110.753906 110.523438 110.753906 112.335938 110.800781 Z M 112.335938 110.800781 "/>
<path style=" stroke:none;fill-rule:nonzero;fill:rgb(2.745098%,56.470591%,83.529413%);fill-opacity:1;" d="M 130.730469 86.730469 C 125.097656 96.636719 115.058594 99.953125 105.609375 95.835938 C 99.496094 93.171875 99.710938 86.515625 101.570312 82.082031 C 102.703125 79.378906 104.886719 77.113281 107.25 73.71875 C 107.25 78.519531 107.394531 82.316406 107.199219 86.097656 C 107.054688 88.957031 108.347656 90.195312 110.964844 90.695312 C 116.167969 91.695312 120.488281 90.210938 123.59375 85.976562 C 126.503906 82.011719 126.933594 77.582031 124.539062 73.203125 C 122.027344 68.609375 118.003906 66.421875 112.738281 66.613281 C 112.027344 66.640625 111.316406 66.765625 110.460938 66.859375 C 110.460938 64.734375 110.460938 62.753906 110.460938 60.546875 C 117.347656 59.367188 123.1875 61.257812 127.730469 66.429688 C 132.941406 72.359375 133.722656 79.171875 130.730469 86.730469 Z M 130.730469 86.730469 "/>
<path style=" stroke:none;fill-rule:nonzero;fill:rgb(3.137255%,56.862748%,83.529413%);fill-opacity:1;" d="M 49.074219 66.476562 C 53.914062 61.378906 59.53125 59.371094 66.367188 60.554688 C 66.367188 62.644531 66.367188 64.621094 66.367188 66.601562 C 57.511719 66.472656 52.429688 69.898438 51.144531 76.785156 C 49.492188 85.613281 58.15625 93.234375 66.726562 90.527344 C 68.820312 89.867188 69.753906 88.632812 69.683594 86.378906 C 69.566406 82.546875 69.652344 78.710938 69.652344 73.953125 C 73.082031 78.933594 77.074219 82.425781 76.363281 88.484375 C 76 91.558594 75.0625 93.65625 72.375 95.152344 C 64.617188 99.476562 54.972656 97.878906 49.050781 91.183594 C 42.925781 84.261719 42.867188 74.570312 49.074219 66.476562 Z M 49.074219 66.476562 "/>
<path style=" stroke:none;fill-rule:nonzero;fill:rgb(2.745098%,56.470591%,83.529413%);fill-opacity:1;" d="M 75.007812 64.765625 C 79.515625 70.964844 83.820312 76.976562 88.28125 83.207031 C 94.953125 76.410156 97.8125 66.390625 106.953125 61.15625 C 107.5625 65.246094 107.289062 68.351562 105 71.460938 C 99.421875 79.027344 94.179688 86.839844 88.492188 95.003906 C 86.363281 92.023438 84.40625 89.332031 82.503906 86.605469 C 79.269531 81.972656 76.246094 77.179688 72.796875 72.714844 C 70.257812 69.425781 68.894531 66.0625 70.027344 61.277344 C 71.703125 62.433594 73.257812 63.507812 75.007812 64.765625 Z M 75.007812 64.765625 "/>
<path style=" stroke:none;fill-rule:nonzero;fill:rgb(1.960784%,56.470591%,83.529413%);fill-opacity:1;" d="M 72.527344 48.453125 C 78.199219 40.734375 86.046875 37.890625 94.058594 40.445312 C 101.78125 42.910156 106.617188 49.308594 106.949219 57.585938 C 104.949219 58.46875 102.914062 59.367188 100.59375 60.390625 C 100.792969 55.933594 100.070312 51.746094 96.359375 49.269531 C 93.980469 47.683594 90.949219 46.367188 88.15625 46.253906 C 81.082031 45.972656 76.738281 51.335938 76.164062 60.128906 C 76.039062 60.140625 75.894531 60.191406 75.792969 60.148438 C 68.566406 57.148438 68.359375 56.441406 72.527344 48.453125 Z M 72.527344 48.453125 "/>
<path style=" stroke:none;fill-rule:nonzero;fill:rgb(1.568628%,55.29412%,83.137256%);fill-opacity:1;" d="M 73.238281 107.835938 C 75.144531 107.5625 76.449219 107.496094 76.386719 109.890625 C 76.242188 115.164062 76.339844 120.445312 76.339844 125.792969 C 73.988281 126.890625 73.066406 126.285156 73.152344 123.765625 C 73.257812 120.546875 73.175781 117.324219 73.175781 112.929688 C 70.824219 116.351562 69.09375 118.871094 67.089844 121.789062 C 65.203125 119.039062 63.492188 116.542969 61.324219 113.375 C 61.324219 118.015625 61.324219 121.933594 61.324219 125.957031 C 59.125 126.589844 57.960938 126.464844 58.003906 123.996094 C 58.085938 118.730469 58.027344 113.457031 58.027344 107.851562 C 64.242188 107.355469 63.710938 113.796875 67.332031 115.949219 C 69.121094 113.390625 71.039062 110.648438 73.238281 107.835938 Z M 73.238281 107.835938 "/>
<path style=" stroke:none;fill-rule:nonzero;fill:rgb(5.490196%,56.862748%,83.529413%);fill-opacity:1;" d="M 130.472656 114.457031 C 132.625 115.222656 134.847656 115.402344 136.359375 116.53125 C 137.863281 117.65625 139.574219 119.773438 139.503906 121.382812 C 139.433594 123.03125 137.632812 125.316406 136.015625 126.035156 C 132.300781 127.691406 128.695312 126.472656 125.582031 124.007812 C 125.5625 123.601562 125.542969 123.195312 125.527344 122.789062 C 126.640625 122.703125 127.78125 122.441406 128.871094 122.570312 C 130.675781 122.789062 132.449219 123.460938 134.246094 123.507812 C 134.898438 123.523438 136.027344 122.351562 136.121094 121.621094 C 136.203125 120.925781 135.378906 119.765625 134.65625 119.40625 C 133.226562 118.691406 131.589844 118.378906 130.035156 117.90625 C 127.320312 117.078125 125.75 115.402344 125.980469 112.402344 C 126.199219 109.578125 127.996094 107.832031 130.523438 107.714844 C 133.335938 107.582031 136.1875 108.347656 139.128906 108.738281 C 138.199219 112.265625 136.863281 111.726562 134.945312 111.039062 C 133.496094 110.519531 131.667969 111.050781 130.007812 111.113281 C 130.082031 112.171875 130.15625 113.230469 130.472656 114.457031 Z M 130.472656 114.457031 "/>
<path style=" stroke:none;fill-rule:nonzero;fill:rgb(6.666667%,57.647061%,83.529413%);fill-opacity:1;" d="M 51.585938 108.296875 C 54.199219 110.1875 54.199219 110.1875 52.179688 112.46875 C 51.589844 112.09375 50.996094 111.664062 50.351562 111.324219 C 47.289062 109.707031 44.449219 109.984375 42.261719 112.769531 C 40.160156 115.449219 40.230469 118.394531 42.128906 121.167969 C 43.90625 123.761719 47.234375 124.546875 50.167969 122.800781 C 52.003906 121.707031 53.230469 121.191406 54.203125 123.542969 C 49.964844 127.445312 44.941406 127.902344 40.933594 124.753906 C 37.289062 121.894531 36.21875 116.773438 38.371094 112.492188 C 40.652344 107.957031 45.4375 106.355469 51.585938 108.296875 Z M 51.585938 108.296875 "/>
<path style=" stroke:none;fill-rule:nonzero;fill:rgb(6.27451%,57.254905%,83.529413%);fill-opacity:1;" d="M 91.132812 126.746094 C 85.125 126.484375 81.808594 124.121094 80.699219 119.570312 C 79.632812 115.179688 81.257812 110.984375 84.886719 108.761719 C 88.816406 106.355469 93.109375 106.828125 97.148438 110.246094 C 96.585938 110.984375 96.011719 111.730469 95.460938 112.449219 C 89.921875 109.40625 86.335938 109.964844 84.5 114.132812 C 83.203125 117.074219 83.695312 119.835938 86.03125 122.070312 C 88.222656 124.167969 90.933594 124.316406 93.324219 122.757812 C 95.242188 121.511719 96.355469 121.386719 97.550781 124.109375 C 95.488281 124.984375 93.460938 125.84375 91.132812 126.746094 Z M 91.132812 126.746094 "/>
<path style=" stroke:none;fill-rule:nonzero;fill:rgb(9.803922%,58.823532%,83.92157%);fill-opacity:1;" d="M 111.988281 110.777344 C 110.523438 110.753906 109.40625 110.753906 108.175781 110.753906 C 107.34375 108.78125 107.308594 107.558594 109.890625 107.605469 C 113.527344 107.671875 117.171875 107.5 120.792969 107.714844 C 121.667969 107.765625 122.472656 108.929688 123.3125 109.582031 C 123.097656 109.902344 122.886719 110.226562 122.671875 110.550781 C 120.945312 110.675781 119.21875 110.800781 117.207031 110.945312 C 117.207031 115.972656 117.207031 120.949219 117.207031 125.9375 C 114.621094 126.902344 113.453125 126.445312 113.578125 123.65625 C 113.722656 120.402344 113.710938 117.132812 113.550781 113.878906 C 113.5 112.835938 112.761719 111.824219 111.988281 110.777344 Z M 111.988281 110.777344 "/>
</g>
</svg>
