<svg xmlns="http://www.w3.org/2000/svg" viewBox="86.11000000000001 118.28999999999999 397.26 338.40999999999997"><rect height="100%" width="100%" x="86.11000000000001" y="118.28999999999999" fill="rgba(255, 255, 255, 1)"/> <svg xmlns="http://www.w3.org/2000/svg" xmlns:xlink="http://www.w3.org/1999/xlink" version="1.1" id="Layer_1" x="156" y="188" viewBox="-5 -5 186.8000030517578 180.90000915527344" xml:space="preserve" height="198" width="205" preserveAspectRatio="xMinYMin" enable-background="new 0 0 176.8 170.7" style="overflow: visible;"><path class="st29" d="M97.9,9.5c0,5.2-4.3,9.5-9.5,9.5c38.3,0,69.4,27.4,69.4,61c0-5.2,4.3-9.5,9.5-9.5s9.5,4.3,9.5,9.5  c0-44.1-39.7-80-88.4-80C93.6,0,97.9,4.3,97.9,9.5z" style="fill: #ffb0cd;"></path><circle class="st32" cx="88.4" cy="9.5" r="9.5" style="fill: #4e8fc2;"></circle><path class="st54" d="M167.3,89.5c-5.2,0-9.5-4.3-9.5-9.5c0,33.6-31.1,61-69.4,61c-5.2,0-10.5-0.5-15.5-1.5c0,0,0,0,0,0c0,0,0,0,0,0  c5.1,1,8.5,6,7.4,11.2c-0.9,4.5-4.9,7.6-9.3,7.6c0,0,0,0-0.1,0c-0.1,0-0.1,0.1-0.2,0.1c5.8,1.1,11.7,1.6,17.6,1.6  c48.7,0,88.4-35.9,88.4-80C176.8,85.2,172.5,89.5,167.3,89.5z" style="fill: #ff9e17;"></path><circle class="st55" cx="167.3" cy="80" r="9.5" style="fill: #ff6d12;"></circle><path class="st7" d="M9.1,155.8c0.1-0.1,0.1-0.3,0.2-0.4C9.2,155.6,9.2,155.7,9.1,155.8z" style="fill: #0097f5;"></path><path class="st7" d="M9.5,155c0.1-0.1,0.2-0.3,0.2-0.4C9.6,154.7,9.6,154.9,9.5,155z" style="fill: #0097f5;"></path><path class="st7" d="M10.8,165.7c-0.2-0.2-0.3-0.4-0.5-0.6C10.5,165.3,10.6,165.5,10.8,165.7z" style="fill: #0097f5;"></path><path class="st7" d="M8.8,156.7c0-0.1,0.1-0.3,0.1-0.4C8.9,156.4,8.9,156.6,8.8,156.7z" style="fill: #0097f5;"></path><path class="st7" d="M8.6,157.4c0,0.1,0,0.1,0,0.2c0-0.1,0.1-0.3,0.1-0.4C8.7,157.3,8.6,157.3,8.6,157.4z" style="fill: #0097f5;"></path><path class="st7" d="M10,154.2c0.1-0.1,0.2-0.3,0.3-0.4C10.1,153.9,10,154.1,10,154.2z" style="fill: #0097f5;"></path><path class="st7" d="M10.1,164.8c-0.1-0.1-0.2-0.3-0.3-0.4C9.9,164.5,10,164.6,10.1,164.8z" style="fill: #0097f5;"></path><path class="st7" d="M8.5,160.4c0-0.2,0-0.3,0-0.5C8.4,160.1,8.5,160.3,8.5,160.4z" style="fill: #0097f5;"></path><path class="st7" d="M9.2,163.1c-0.1-0.1-0.1-0.3-0.2-0.4C9.1,162.8,9.1,163,9.2,163.1z" style="fill: #0097f5;"></path><path class="st7" d="M9.6,163.9c-0.1-0.1-0.1-0.3-0.2-0.4C9.4,163.7,9.5,163.8,9.6,163.9z" style="fill: #0097f5;"></path><path class="st7" d="M8.6,161.3c0-0.2-0.1-0.3-0.1-0.5C8.6,161,8.6,161.2,8.6,161.3z" style="fill: #0097f5;"></path><path class="st7" d="M8.4,159.5c0-0.2,0-0.3,0-0.5C8.4,159.2,8.4,159.4,8.4,159.5z" style="fill: #0097f5;"></path><path class="st7" d="M8.5,158.6c0-0.1,0-0.3,0.1-0.4C8.5,158.3,8.5,158.4,8.5,158.6z" style="fill: #0097f5;"></path><path class="st7" d="M11.1,152.8c0.1-0.1,0.3-0.3,0.4-0.4C11.4,152.5,11.2,152.7,11.1,152.8z" style="fill: #0097f5;"></path><path class="st7" d="M15.4,168.6c-0.2-0.1-0.4-0.1-0.6-0.2C15,168.4,15.2,168.5,15.4,168.6z" style="fill: #0097f5;"></path><path class="st7" d="M14.4,168.2c-0.2-0.1-0.4-0.2-0.6-0.3C14,168.1,14.2,168.2,14.4,168.2z" style="fill: #0097f5;"></path><path class="st7" d="M61.7,146.9c1-5.1,6-8.5,11.2-7.4c-6.1-1.2-10.9,1.9-15.1,4.7c-4.7,3.1-10.5,6.9-20.6,7.6  c-5.5,9.5-13.2,15.1-13.7,15.5c-1.7,1.2-3.6,1.8-5.5,1.8c-0.7,0-1.4-0.1-2.1-0.2c0,0,0.1,0,0.1,0c6.8,1.4,12.7,2,18.1,2  c17.8,0,28-6.7,34.2-10.7c0.8-0.5,1.9-1.2,2.6-1.6c-0.5-0.1-1.1-0.2-1.6-0.3C64,157,60.7,152,61.7,146.9z" style="fill: #0097f5;"></path><path class="st7" d="M12.6,167.3c-0.2-0.2-0.5-0.3-0.7-0.5C12.1,166.9,12.4,167.1,12.6,167.3z" style="fill: #0097f5;"></path><path class="st7" d="M13.5,167.8c-0.2-0.1-0.4-0.2-0.6-0.3C13.1,167.6,13.3,167.7,13.5,167.8z" style="fill: #0097f5;"></path><path class="st7" d="M11.8,152.2c0.1-0.1,0.3-0.2,0.5-0.4C12.1,151.9,11.9,152,11.8,152.2z" style="fill: #0097f5;"></path><path class="st7" d="M8.8,162.2c0-0.1-0.1-0.3-0.1-0.4C8.8,161.9,8.8,162.1,8.8,162.2z" style="fill: #0097f5;"></path><path class="st7" d="M10.5,153.5c0.1-0.1,0.2-0.3,0.3-0.4C10.7,153.2,10.6,153.3,10.5,153.5z" style="fill: #0097f5;"></path><path class="st7" d="M11.8,166.6c-0.3-0.2-0.5-0.5-0.7-0.7C11.2,166.2,11.5,166.4,11.8,166.6z" style="fill: #0097f5;"></path><path class="st56" d="M71,158.2c4.4,0,8.4-3.1,9.3-7.6c1-5.1-2.3-10.2-7.4-11.2c0,0,0,0,0,0c-5.1-1-10.1,2.3-11.2,7.4  c-1,5.1,2.3,10.2,7.4,11.2c0.5,0.1,1.1,0.2,1.6,0.3C70.8,158.3,70.9,158.3,71,158.2C71,158.2,71,158.2,71,158.2z" style="fill: #005c14;"></path><path class="st52" d="M13.8,168c-0.1-0.1-0.2-0.1-0.4-0.2C13.6,167.9,13.7,167.9,13.8,168z" style="fill: #9555ab;"></path><path class="st52" d="M9,162.7c-0.1-0.2-0.1-0.3-0.2-0.5C8.9,162.4,9,162.5,9,162.7z" style="fill: #9555ab;"></path><path class="st52" d="M11,165.9c-0.1-0.1-0.1-0.2-0.2-0.2C10.9,165.8,10.9,165.8,11,165.9z" style="fill: #9555ab;"></path><path class="st52" d="M9.4,163.5c-0.1-0.1-0.1-0.3-0.2-0.4C9.2,163.2,9.3,163.4,9.4,163.5z" style="fill: #9555ab;"></path><path class="st52" d="M11.9,166.8c-0.1,0-0.1-0.1-0.2-0.1C11.8,166.7,11.9,166.7,11.9,166.8z" style="fill: #9555ab;"></path><path class="st52" d="M9.8,164.3c-0.1-0.1-0.2-0.3-0.2-0.4C9.7,164.1,9.7,164.2,9.8,164.3z" style="fill: #9555ab;"></path><path class="st52" d="M10.2,164.9c0,0,0.1,0.1,0.1,0.1c-0.1-0.1-0.2-0.2-0.2-0.3C10.1,164.8,10.2,164.9,10.2,164.9z" style="fill: #9555ab;"></path><path class="st52" d="M12.9,167.5c-0.1-0.1-0.2-0.1-0.3-0.2C12.7,167.3,12.8,167.4,12.9,167.5z" style="fill: #9555ab;"></path><path class="st52" d="M15.8,168.7c-0.1,0-0.3-0.1-0.4-0.1C15.6,168.6,15.7,168.6,15.8,168.7z" style="fill: #9555ab;"></path><path class="st52" d="M11.5,152.4c0.1-0.1,0.2-0.2,0.3-0.2C11.7,152.2,11.6,152.3,11.5,152.4z" style="fill: #9555ab;"></path><path class="st52" d="M10.8,153.1c0.1-0.1,0.2-0.2,0.3-0.3C11,152.9,10.9,153,10.8,153.1z" style="fill: #9555ab;"></path><path class="st52" d="M10.2,153.8c0.1-0.1,0.2-0.2,0.3-0.3C10.4,153.6,10.3,153.7,10.2,153.8z" style="fill: #9555ab;"></path><path class="st52" d="M19.9,150.1c6.9,1.5,12.5,1.9,17.2,1.5c2.8-4.8,5-10.6,5.3-17.1c-0.3,5.1-4.5,9-9.5,9c-0.2,0-0.4,0-0.5,0  c-4.9-0.3-8.8-4.3-9-9.1c0,0,0,0-0.1-0.1c-1.1,9.9-11,17.4-11.1,17.4c0,0-0.1,0.1-0.1,0.1C14.4,150.2,17.1,149.5,19.9,150.1z" style="fill: #9555ab;"></path><path class="st52" d="M9.7,154.6c0.1-0.1,0.1-0.2,0.2-0.4C9.9,154.3,9.8,154.5,9.7,154.6z" style="fill: #9555ab;"></path><path class="st52" d="M14.8,168.4c-0.1,0-0.2-0.1-0.4-0.1C14.6,168.3,14.7,168.3,14.8,168.4z" style="fill: #9555ab;"></path><path class="st52" d="M42.5,133.5c0,0.3,0,0.7,0,1C42.5,134.2,42.5,133.8,42.5,133.5z" style="fill: #9555ab;"></path><path class="st52" d="M8.4,160c0-0.1,0-0.3,0-0.4C8.4,159.7,8.4,159.8,8.4,160z" style="fill: #9555ab;"></path><path class="st52" d="M8.7,161.8c0-0.2-0.1-0.3-0.1-0.5C8.7,161.5,8.7,161.7,8.7,161.8z" style="fill: #9555ab;"></path><path class="st52" d="M8.4,159c0-0.2,0-0.3,0-0.5C8.4,158.7,8.4,158.9,8.4,159z" style="fill: #9555ab;"></path><path class="st52" d="M8.5,160.9c0-0.1,0-0.3-0.1-0.4C8.5,160.6,8.5,160.7,8.5,160.9z" style="fill: #9555ab;"></path><path class="st52" d="M8.5,158.1c0-0.2,0-0.3,0.1-0.5C8.6,157.8,8.5,158,8.5,158.1z" style="fill: #9555ab;"></path><path class="st52" d="M9.3,155.4c0.1-0.1,0.1-0.3,0.2-0.4C9.4,155.2,9.4,155.3,9.3,155.4z" style="fill: #9555ab;"></path><path class="st52" d="M8.9,156.3c0.1-0.2,0.1-0.3,0.2-0.5C9.1,156,9,156.1,8.9,156.3z" style="fill: #9555ab;"></path><path class="st52" d="M8.7,157.2c0-0.2,0.1-0.3,0.1-0.5C8.8,156.9,8.7,157,8.7,157.2z" style="fill: #9555ab;"></path><path class="st57" d="M23.5,167.1c0.5-0.3,8.2-6,13.7-15.5c-4.7,0.3-10.4-0.1-17.2-1.5c-2.8-0.6-5.6,0.1-7.7,1.7  c-0.2,0.1-0.3,0.2-0.5,0.4c-0.1,0.1-0.2,0.2-0.3,0.2c-0.1,0.1-0.3,0.3-0.4,0.4c-0.1,0.1-0.2,0.2-0.3,0.3c-0.1,0.1-0.2,0.3-0.3,0.4  c-0.1,0.1-0.2,0.2-0.3,0.3c-0.1,0.1-0.2,0.3-0.3,0.4c-0.1,0.1-0.2,0.2-0.2,0.4c-0.1,0.1-0.2,0.3-0.2,0.4c-0.1,0.1-0.1,0.3-0.2,0.4  c-0.1,0.1-0.1,0.3-0.2,0.4c-0.1,0.1-0.1,0.3-0.2,0.5c0,0.1-0.1,0.3-0.1,0.4c0,0.2-0.1,0.3-0.1,0.5c0,0.1-0.1,0.3-0.1,0.4  c0,0.2-0.1,0.3-0.1,0.5c0,0.1,0,0.3-0.1,0.4c0,0.2,0,0.3,0,0.5c0,0.2,0,0.3,0,0.5c0,0.1,0,0.3,0,0.4c0,0.2,0,0.3,0,0.5  c0,0.1,0,0.3,0.1,0.4c0,0.2,0,0.3,0.1,0.5c0,0.2,0.1,0.3,0.1,0.5c0,0.1,0.1,0.3,0.1,0.4c0,0.2,0.1,0.3,0.2,0.5  c0,0.1,0.1,0.3,0.2,0.4c0.1,0.2,0.1,0.3,0.2,0.4c0.1,0.1,0.1,0.3,0.2,0.4c0.1,0.1,0.2,0.3,0.2,0.4c0.1,0.1,0.2,0.3,0.3,0.4  c0.1,0.1,0.2,0.2,0.2,0.3c0.2,0.2,0.3,0.4,0.5,0.6c0.1,0.1,0.1,0.2,0.2,0.2c0.2,0.3,0.5,0.5,0.7,0.7c0.1,0,0.1,0.1,0.2,0.1  c0.2,0.2,0.4,0.3,0.7,0.5c0.1,0.1,0.2,0.1,0.3,0.2c0.2,0.1,0.4,0.2,0.6,0.3c0.1,0.1,0.2,0.1,0.4,0.2c0.2,0.1,0.4,0.2,0.6,0.3  c0.1,0,0.2,0.1,0.4,0.1c0.2,0.1,0.4,0.1,0.6,0.2c0.1,0,0.3,0.1,0.4,0.1c0.7,0.2,1.4,0.2,2.1,0.2C19.8,168.9,21.8,168.3,23.5,167.1z" style="fill: #0034a3;"></path><path class="st30" d="M33.6,124.5c4.9,0.3,8.7,4.2,8.9,9c0-4.6-1.9-9.1-5.3-12.4C25.5,109.8,19,95.2,19,80c0,5.2-4.3,9.5-9.5,9.5  S0,85.2,0,80c0,20.2,8.3,39.5,23.5,54.3c0-0.3,0.1-0.5,0.1-0.8C23.8,128.2,28.3,124.2,33.6,124.5z" style="fill: #e2e600;"></path><polygon class="st30" points="42.5,134.5 42.5,134.5 42.5,134.5 42.5,134.5 " style="fill: #e2e600;"></polygon><circle class="st33" cx="9.5" cy="80" r="9.5" style="fill: #47ba00;"></circle><path class="st58" d="M32.5,143.5c0.2,0,0.4,0,0.5,0c5,0,9.2-3.9,9.5-9c0,0,0,0,0,0c0,0,0,0,0,0c0-0.3,0-0.7,0-1  c-0.2-4.8-4.1-8.7-8.9-9c-5.2-0.3-9.7,3.7-10,8.9c0,0.3,0,0.5-0.1,0.8c0,0,0,0,0.1,0.1C23.7,139.2,27.5,143.2,32.5,143.5z" style="fill: #854b00;"></path><path class="st53" d="M9.5,70.5c5.2,0,9.5,4.3,9.5,9.5c0-33.6,31.1-61,69.4-61c-5.2,0-9.5-4.3-9.5-9.5S83.1,0,88.4,0  C39.7,0,0,35.9,0,80C0,74.7,4.3,70.5,9.5,70.5z" style="fill: #4ed1f5;"></path></svg> <svg y="260" viewBox="2.7799999713897705 14.260000228881836 209.7100067138672 43.23999786376953" x="203" height="43" width="209" style="overflow: visible;"><g fill="#545454" fill-opacity="1" style=""><path d="M19.78 48.96L19.78 48.96Q14.26 48.96 10.46 46.87Q6.67 44.78 4.73 40.90Q2.78 37.01 2.78 31.63L2.78 31.63Q2.78 26.30 4.75 22.39Q6.72 18.48 10.46 16.37Q14.21 14.26 19.44 14.26L19.44 14.26Q22.32 14.26 25.08 15Q27.84 15.74 30.19 17.42L30.19 17.42Q31.01 18.00 31.13 18.84Q31.25 19.68 30.84 20.42Q30.43 21.17 29.66 21.43Q28.90 21.70 27.94 21.12L27.94 21.12Q26.06 19.82 24 19.22Q21.94 18.62 19.44 18.62L19.44 18.62Q13.82 18.62 10.90 22.01Q7.97 25.39 7.97 31.63L7.97 31.63Q7.97 38.02 10.97 41.33Q13.97 44.64 19.97 44.64L19.97 44.64Q23.62 44.64 27.22 43.44L27.22 43.44L27.22 34.37L21.02 34.37Q18.96 34.37 18.96 32.45L18.96 32.45Q18.96 30.62 21.02 30.62L21.02 30.62L29.33 30.62Q31.39 30.62 31.39 32.69L31.39 32.69L31.39 44.78Q31.39 46.61 30.05 47.14L30.05 47.14Q27.98 47.95 25.20 48.46Q22.42 48.96 19.78 48.96ZM46.98 48.96L46.98 48.96Q44.54 48.96 42.62 48Q40.70 47.04 39.57 45.41Q38.44 43.78 38.44 41.71L38.44 41.71Q38.44 39.12 39.76 37.63Q41.08 36.14 44.13 35.47Q47.18 34.80 52.36 34.80L52.36 34.80L53.99 34.80L53.99 33.55Q53.99 30.82 52.84 29.62Q51.69 28.42 49.05 28.42L49.05 28.42Q47.51 28.42 45.86 28.80Q44.20 29.18 42.42 30.10L42.42 30.10Q41.42 30.58 40.77 30.24Q40.12 29.90 39.88 29.18Q39.64 28.46 39.93 27.70Q40.22 26.93 41.13 26.54L41.13 26.54Q43.24 25.58 45.30 25.13Q47.37 24.67 49.19 24.67L49.19 24.67Q53.99 24.67 56.30 26.95Q58.60 29.23 58.60 34.08L58.60 34.08L58.60 46.42Q58.60 48.86 56.34 48.86L56.34 48.86Q54.04 48.86 54.04 46.42L54.04 46.42L54.04 44.64Q53.18 46.66 51.35 47.81Q49.53 48.96 46.98 48.96ZM47.94 45.50L47.94 45.50Q50.54 45.50 52.26 43.68Q53.99 41.86 53.99 39.07L53.99 39.07L53.99 37.78L52.41 37.78Q48.90 37.78 46.91 38.11Q44.92 38.45 44.08 39.24Q43.24 40.03 43.24 41.42L43.24 41.42Q43.24 43.25 44.49 44.38Q45.74 45.50 47.94 45.50ZM68.67 57.50L68.67 57.50Q66.27 57.50 66.27 55.06L66.27 55.06L66.27 27.22Q66.27 24.77 68.62 24.77L68.62 24.77Q71.02 24.77 71.02 27.22L71.02 27.22L71.02 29.04Q72.08 27.02 74.14 25.85Q76.21 24.67 78.85 24.67L78.85 24.67Q81.97 24.67 84.30 26.16Q86.62 27.65 87.90 30.36Q89.17 33.07 89.17 36.82L89.17 36.82Q89.17 40.56 87.90 43.30Q86.62 46.03 84.30 47.50Q81.97 48.96 78.85 48.96L78.85 48.96Q76.26 48.96 74.22 47.83Q72.18 46.70 71.12 44.74L71.12 44.74L71.12 55.06Q71.12 57.50 68.67 57.50ZM77.65 45.22L77.65 45.22Q80.67 45.22 82.47 43.06Q84.27 40.90 84.27 36.82L84.27 36.82Q84.27 32.74 82.47 30.60Q80.67 28.46 77.65 28.46L77.65 28.46Q74.62 28.46 72.82 30.60Q71.02 32.74 71.02 36.82L71.02 36.82Q71.02 40.90 72.82 43.06Q74.62 45.22 77.65 45.22ZM105.96 48.96L105.96 48.96Q102.36 48.96 99.74 47.45Q97.13 45.94 95.69 43.18Q94.25 40.42 94.25 36.67L94.25 36.67Q94.25 31.10 97.42 27.89Q100.58 24.67 105.96 24.67L105.96 24.67Q107.64 24.67 109.49 25.18Q111.34 25.68 112.92 26.83L112.92 26.83Q113.69 27.31 113.81 28.06Q113.93 28.80 113.57 29.45Q113.21 30.10 112.54 30.31Q111.86 30.53 111 30.05L111 30.05Q109.85 29.23 108.65 28.87Q107.45 28.51 106.34 28.51L106.34 28.51Q102.94 28.51 101.09 30.65Q99.24 32.78 99.24 36.72L99.24 36.72Q99.24 40.66 101.09 42.89Q102.94 45.12 106.34 45.12L106.34 45.12Q107.45 45.12 108.62 44.78Q109.80 44.45 111 43.63L111 43.63Q111.86 43.15 112.51 43.39Q113.16 43.63 113.47 44.28Q113.78 44.93 113.66 45.67Q113.54 46.42 112.78 46.90L112.78 46.90Q111.24 48 109.44 48.48Q107.64 48.96 105.96 48.96ZM126.59 48.96L126.59 48.96Q122.85 48.96 120.95 46.80Q119.06 44.64 119.06 40.46L119.06 40.46L119.06 16.80Q119.06 14.35 121.46 14.35L121.46 14.35Q123.90 14.35 123.90 16.80L123.90 16.80L123.90 40.18Q123.90 44.93 127.74 44.93L127.74 44.93Q128.18 44.93 128.51 44.88Q128.85 44.83 129.18 44.83L129.18 44.83Q129.76 44.78 130 45.14Q130.24 45.50 130.24 46.61L130.24 46.61Q130.24 48.58 128.42 48.86L128.42 48.86Q127.94 48.91 127.48 48.94Q127.02 48.96 126.59 48.96ZM144.68 48.96L144.68 48.96Q141.13 48.96 138.54 47.47Q135.94 45.98 134.53 43.27Q133.11 40.56 133.11 36.82L133.11 36.82Q133.11 33.07 134.53 30.36Q135.94 27.65 138.54 26.16Q141.13 24.67 144.68 24.67L144.68 24.67Q148.14 24.67 150.73 26.16Q153.32 27.65 154.76 30.36Q156.20 33.07 156.20 36.82L156.20 36.82Q156.20 40.56 154.76 43.27Q153.32 45.98 150.73 47.47Q148.14 48.96 144.68 48.96ZM144.68 45.22L144.68 45.22Q147.66 45.22 149.48 43.06Q151.30 40.90 151.30 36.82L151.30 36.82Q151.30 32.74 149.48 30.60Q147.66 28.46 144.68 28.46L144.68 28.46Q141.66 28.46 139.83 30.60Q138.01 32.74 138.01 36.82L138.01 36.82Q138.01 40.90 139.83 43.06Q141.66 45.22 144.68 45.22ZM170.98 48.96L170.98 48.96Q162.48 48.96 162.48 39.50L162.48 39.50L162.48 27.22Q162.48 24.77 164.88 24.77L164.88 24.77Q167.33 24.77 167.33 27.22L167.33 27.22L167.33 39.55Q167.33 42.38 168.48 43.73Q169.63 45.07 172.13 45.07L172.13 45.07Q174.86 45.07 176.57 43.25Q178.27 41.42 178.27 38.35L178.27 38.35L178.27 27.22Q178.27 24.77 180.72 24.77L180.72 24.77Q183.12 24.77 183.12 27.22L183.12 27.22L183.12 46.42Q183.12 48.86 180.77 48.86L180.77 48.86Q178.42 48.86 178.42 46.42L178.42 46.42L178.42 44.78Q177.26 46.85 175.34 47.90Q173.42 48.96 170.98 48.96ZM199.86 48.96L199.86 48.96Q196.79 48.96 194.46 47.50Q192.14 46.03 190.84 43.30Q189.54 40.56 189.54 36.82L189.54 36.82Q189.54 33.07 190.84 30.36Q192.14 27.65 194.44 26.16Q196.74 24.67 199.86 24.67L199.86 24.67Q202.50 24.67 204.57 25.82Q206.63 26.98 207.64 28.94L207.64 28.94L207.64 16.80Q207.64 14.35 210.04 14.35L210.04 14.35Q212.49 14.35 212.49 16.80L212.49 16.80L212.49 46.42Q212.49 48.86 210.09 48.86L210.09 48.86Q207.69 48.86 207.69 46.42L207.69 46.42L207.69 44.59Q206.63 46.61 204.57 47.78Q202.50 48.96 199.86 48.96ZM201.11 45.22L201.11 45.22Q204.09 45.22 205.91 43.06Q207.74 40.90 207.74 36.82L207.74 36.82Q207.74 32.74 205.91 30.60Q204.09 28.46 201.11 28.46L201.11 28.46Q198.09 28.46 196.26 30.60Q194.44 32.74 194.44 36.82L194.44 36.82Q194.44 40.90 196.26 43.06Q198.09 45.22 201.11 45.22Z" transform="translate(0, 0)"></path></g></svg></svg>