<svg width="20" height="22" viewBox="0 0 20 22" fill="none" xmlns="http://www.w3.org/2000/svg">
<path d="M0 4.19048C0 3.46704 0.331898 2.83553 0.814983 2.32597C1.2941 1.8206 1.95053 1.40113 2.70177 1.06597C4.20605 0.394853 6.22882 0 8.42105 0C10.6133 0 12.6361 0.394853 14.1403 1.06597C14.8916 1.40113 15.548 1.8206 16.0271 2.32597C16.5102 2.83553 16.8421 3.46704 16.8421 4.19048V9.78143C16.3636 9.55517 15.8282 9.42857 15.2632 9.42857V6.69682C14.9253 6.92771 14.5467 7.13368 14.1403 7.31498C12.6361 7.9861 10.6133 8.38095 8.42105 8.38095C6.22882 8.38095 4.20605 7.9861 2.70177 7.31498C2.2954 7.13368 1.91677 6.92771 1.57895 6.69682V16.7619C1.57895 16.9787 1.67415 17.2429 1.96342 17.548C2.25666 17.8573 2.71785 18.1715 3.34765 18.4525C4.60546 19.0136 6.39848 19.381 8.42105 19.381C8.79666 19.381 9.16435 19.3683 9.52216 19.3441C9.60667 19.8769 9.80272 20.3972 10.1187 20.8717C9.56895 20.9248 9.00093 20.9524 8.42105 20.9524C6.22882 20.9524 4.20605 20.5575 2.70177 19.8864C1.95053 19.5513 1.2941 19.1318 0.814983 18.6264C0.331898 18.1169 0 17.4853 0 16.7619V4.19048ZM1.57895 4.19048C1.57895 4.40724 1.67415 4.67142 1.96342 4.97655C2.25666 5.28585 2.71785 5.60005 3.34765 5.88104C4.60546 6.44219 6.39848 6.80952 8.42105 6.80952C10.4436 6.80952 12.2366 6.44219 13.4945 5.88104C14.1243 5.60005 14.5854 5.28585 14.8787 4.97655C15.168 4.67142 15.2632 4.40724 15.2632 4.19048C15.2632 3.97371 15.168 3.70953 14.8787 3.4044C14.5854 3.0951 14.1243 2.7809 13.4945 2.49992C12.2366 1.93876 10.4436 1.57143 8.42105 1.57143C6.39848 1.57143 4.60546 1.93876 3.34765 2.49992C2.71785 2.7809 2.25666 3.0951 1.96342 3.4044C1.67415 3.70953 1.57895 3.97371 1.57895 4.19048ZM17.8947 13.0952C17.8947 14.5417 16.7165 15.7143 15.2632 15.7143C13.8098 15.7143 12.6316 14.5417 12.6316 13.0952C12.6316 11.6488 13.8098 10.4762 15.2632 10.4762C16.7165 10.4762 17.8947 11.6488 17.8947 13.0952ZM20 18.7262C20 20.3568 18.6466 22 15.2632 22C11.8797 22 10.5263 20.363 10.5263 18.7262V18.6183C10.5263 17.5926 11.3618 16.7619 12.3923 16.7619H18.134C19.1646 16.7619 20 17.5926 20 18.6183V18.7262Z" fill="#424242"/>
</svg>
