<svg width="21" height="23" viewBox="0 0 21 23" fill="none" xmlns="http://www.w3.org/2000/svg">
<path d="M19.3421 19.7143C19.3421 20.0155 19.0945 20.2619 18.7895 20.2619H12.4539C12.1365 20.8654 11.7343 21.4182 11.2631 21.9048H18.7895C20.0097 21.9048 21 20.9234 21 19.7143V8.57352C21 7.99305 20.7668 7.43557 20.3523 7.02486L13.9097 0.641809C13.8932 0.625434 13.8745 0.611231 13.8559 0.597118C13.8421 0.586691 13.8285 0.576312 13.8158 0.565143C13.7373 0.495048 13.6599 0.426048 13.5737 0.368C13.5458 0.349317 13.5152 0.334568 13.4848 0.319887C13.467 0.311332 13.4494 0.302799 13.4323 0.293524C13.4138 0.283222 13.3954 0.272678 13.377 0.262119C13.3171 0.227777 13.2569 0.193282 13.1935 0.166476C12.9758 0.0766666 12.7415 0.031762 12.5038 0.0153333C12.4821 0.0139558 12.4605 0.0110388 12.4389 0.00811499C12.4089 0.00406389 12.3788 0 12.348 0H5.52632C4.30611 0 3.31579 0.981333 3.31579 2.19048V10.4028C3.83988 10.1862 4.3954 10.0294 4.97368 9.94087V2.19048C4.97368 1.88929 5.22126 1.64286 5.52632 1.64286H12.1579V6.57143C12.1579 7.78057 13.1482 8.7619 14.3684 8.7619H19.3421V19.7143ZM13.8158 2.87062L18.102 7.11905H14.3684C14.0634 7.11905 13.8158 6.87262 13.8158 6.57143V2.87062Z" fill="#3D3D3D"/>
<path d="M12.1579 16.9762C12.1579 20.303 9.43626 23 6.07895 23C2.72164 23 0 20.303 0 16.9762C0 13.6493 2.72164 10.9524 6.07895 10.9524C9.43626 10.9524 12.1579 13.6493 12.1579 16.9762ZM2.76316 16.4286C2.45795 16.4286 2.21053 16.6737 2.21053 16.9762C2.21053 17.2786 2.45795 17.5238 2.76316 17.5238H8.06057L6.24081 19.3271C6.02499 19.5409 6.02499 19.8877 6.24081 20.1015C6.45662 20.3154 6.80653 20.3154 7.02235 20.1015L9.78551 17.3634C10.0013 17.1496 10.0013 16.8028 9.78551 16.589L7.02235 13.8509C6.80653 13.637 6.45663 13.637 6.24081 13.8509C6.02499 14.0647 6.02499 14.4115 6.24081 14.6253L8.06057 16.4286H2.76316Z" fill="#3D3D3D"/>
</svg>
