<svg width="20" height="23" viewBox="0 0 20 23" fill="none" xmlns="http://www.w3.org/2000/svg">
<path d="M2.4 2.42105C2.4 1.08394 3.47452 0 4.8 0H12.9373C13.5738 0 14.1842 0.255074 14.6343 0.70911L19.2971 5.41275C19.7471 5.86679 20 6.48259 20 7.1247V20.1754C20 21.5126 18.9255 22.5965 17.6 22.5965H12.7598C12.8711 22.0439 12.7513 21.4533 12.4003 20.9825H17.6C18.0418 20.9825 18.4 20.6211 18.4 20.1754V8.07018H14.4C13.0745 8.07018 12 6.98623 12 5.64912V1.61404H4.8C4.35817 1.61404 4 1.97535 4 2.42105V10.1411C3.43839 10.2165 2.90133 10.3704 2.4 10.5914V2.42105ZM14.4 6.45614H18.0686L13.6 1.94831V5.64912C13.6 6.09483 13.9582 6.45614 14.4 6.45614ZM4.8 20.9825C5.83666 20.9825 6.79657 20.6509 7.58123 20.0873L10.2343 22.7636C10.5467 23.0788 11.0533 23.0788 11.3657 22.7636C11.6781 22.4485 11.6781 21.9375 11.3657 21.6223L8.7126 18.946C9.27137 18.1544 9.6 17.1861 9.6 16.1404C9.6 13.4661 7.45097 11.2982 4.8 11.2982C2.14903 11.2982 0 13.4661 0 16.1404C0 18.8146 2.14903 20.9825 4.8 20.9825ZM4.8 19.3684C3.03269 19.3684 1.6 17.9232 1.6 16.1404C1.6 14.3575 3.03269 12.9123 4.8 12.9123C6.56731 12.9123 8 14.3575 8 16.1404C8 17.9232 6.56731 19.3684 4.8 19.3684Z" fill="#3D3D3D"/>
</svg>
